<?xml version="1.0" encoding="UTF-8"?>
<svg xmlns="http://www.w3.org/2000/svg" xmlns:xlink="http://www.w3.org/1999/xlink" width="100pt" height="100pt" viewBox="0 0 100 100" version="1.1">
<g id="surface3171146">
<path style=" stroke:none;fill-rule:nonzero;fill:#008FBA;fill-opacity:1;" d="M 32.5 13 C 32.222656 13 32 13.222656 32 13.5 L 32 15 L 30 15 C 26.699219 15 24 17.699219 24 21 L 24 79.5 C 24 82.527344 26.472656 85 29.5 85 L 75 85 C 75.488281 85 75.90625 84.648438 75.988281 84.167969 C 76.070312 83.6875 75.792969 83.21875 75.332031 83.058594 C 74.058594 82.605469 73 81.03125 73 79.5 C 73 77.96875 74.058594 76.394531 75.332031 75.945312 C 75.757812 75.792969 76.03125 75.378906 76 74.933594 L 76 24 C 76 19.042969 71.957031 15 67 15 L 49 15 L 49 13.5 C 49 13.222656 48.777344 13 48.5 13 Z M 33 14 L 48 14 L 48 43.691406 L 40.792969 40.085938 C 40.707031 40.023438 40.601562 39.992188 40.492188 39.992188 C 40.390625 39.996094 40.289062 40.027344 40.207031 40.089844 L 33 43.691406 Z M 30 17 L 32 17 L 32 44.5 C 32 44.671875 32.089844 44.832031 32.238281 44.925781 C 32.382812 45.015625 32.566406 45.023438 32.722656 44.949219 L 40 41.308594 L 40 59.5 C 39.996094 59.679688 40.09375 59.847656 40.246094 59.9375 C 40.402344 60.03125 40.597656 60.03125 40.753906 59.9375 C 40.90625 59.847656 41.003906 59.679688 41 59.5 L 41 41.308594 L 48.277344 44.949219 C 48.433594 45.023438 48.617188 45.015625 48.761719 44.925781 C 48.910156 44.832031 49 44.671875 49 44.5 L 49 17 L 67 17 C 70.878906 17 74 20.121094 74 24 L 74 74 L 29.5 74 C 28.171875 74 26.953125 74.476562 26 75.265625 L 26 21 C 26 18.78125 27.78125 17 30 17 Z M 40.492188 61.992188 C 40.359375 61.996094 40.234375 62.050781 40.140625 62.144531 C 40.046875 62.238281 39.996094 62.367188 40 62.5 L 40 64.5 C 39.996094 64.679688 40.09375 64.847656 40.246094 64.9375 C 40.402344 65.03125 40.597656 65.03125 40.753906 64.9375 C 40.90625 64.847656 41.003906 64.679688 41 64.5 L 41 62.5 C 41.003906 62.363281 40.949219 62.234375 40.855469 62.136719 C 40.757812 62.042969 40.628906 61.988281 40.492188 61.992188 Z M 40.492188 65.992188 C 40.359375 65.996094 40.234375 66.050781 40.140625 66.144531 C 40.046875 66.238281 39.996094 66.367188 40 66.5 L 40 67.5 C 39.996094 67.679688 40.09375 67.847656 40.246094 67.9375 C 40.402344 68.03125 40.597656 68.03125 40.753906 67.9375 C 40.90625 67.847656 41.003906 67.679688 41 67.5 L 41 66.5 C 41.003906 66.363281 40.949219 66.234375 40.855469 66.136719 C 40.757812 66.042969 40.628906 65.988281 40.492188 65.992188 Z M 29.5 76 L 72.164062 76 C 71.730469 76.597656 71.414062 77.28125 71.21875 78 L 31.5 78 C 31.320312 77.996094 31.152344 78.09375 31.0625 78.246094 C 30.96875 78.402344 30.96875 78.597656 31.0625 78.753906 C 31.152344 78.90625 31.320312 79.003906 31.5 79 L 71.042969 79 C 71.027344 79.167969 71 79.332031 71 79.5 C 71 79.667969 71.027344 79.832031 71.042969 80 L 40.5 80 C 40.320312 79.996094 40.152344 80.09375 40.0625 80.246094 C 39.96875 80.402344 39.96875 80.597656 40.0625 80.753906 C 40.152344 80.90625 40.320312 81.003906 40.5 81 L 71.21875 81 C 71.414062 81.71875 71.730469 82.402344 72.164062 83 L 29.5 83 C 27.554688 83 26 81.445312 26 79.5 C 26 77.554688 27.554688 76 29.5 76 Z M 29.5 76 "/>
</g>
</svg>
